<?xml version="1.0" encoding="UTF-8"?><!DOCTYPE svg PUBLIC "-//W3C//DTD SVG 1.1//EN" "http://www.w3.org/Graphics/SVG/1.1/DTD/svg11.dtd"><svg xmlns="http://www.w3.org/2000/svg" xmlns:xlink="http://www.w3.org/1999/xlink" version="1.1" width="24" height="24" viewBox="0 0 24.00 24.00"><path fill="#f1f1f1" d="M12 13C9.3324 13 4 14.3331 4 17L4 20L20 20L20 17C20 14.3331 14.6664 13 12 13ZM12 4C9.79138 4 8 5.79006 8 8C8 10.2051 9.79138 12 12 12C14.2074 12 16 10.2051 16 8C16 5.79006 14.2074 4 12 4ZM12 14.8981C14.9734 14.8981 18.0994 16.3551 18.0994 17L18.0994 18.0981L5.89938 18.0981L5.89938 17C5.89938 16.3551 9 14.8981 12 14.8981ZM12 5.89807C13.1574 5.89807 14.0994 6.84007 14.0994 8C14.0994 9.15607 13.1574 10.0981 12 10.0981C10.8414 10.0981 9.89938 9.15607 9.89938 8C9.89938 6.84007 10.8414 5.89807 12 5.89807Z" /></svg>