<?xml version="1.0" encoding="UTF-8"?><!DOCTYPE svg PUBLIC "-//W3C//DTD SVG 1.1//EN" "http://www.w3.org/Graphics/SVG/1.1/DTD/svg11.dtd"><svg xmlns="http://www.w3.org/2000/svg" xmlns:xlink="http://www.w3.org/1999/xlink" version="1.1" width="24" height="24" viewBox="0 0 24.00 24.00"><path fill="#FFFFFF" d="M17.2494 12C17.2494 12.2302 17.2284 12.4572 17.1994 12.6812L18.6794 13.8392C18.8094 13.9451 18.8494 14.1342 18.7614 14.2861L17.3614 16.7101C17.2744 16.8621 17.0914 16.9232 16.9334 16.8632L15.1894 16.1602C14.8294 16.4371 14.4344 16.6711 14 16.8481L13.7454 18.7031C13.7184 18.8701 13.5734 19 13.3994 19L10.5994 19C10.4254 19 10.2794 18.8701 10.2534 18.7031L10 16.8481C9.56439 16.6721 9.1694 16.4371 8.80838 16.1602L7.0654 16.8632C6.90738 16.9232 6.7254 16.8621 6.63739 16.7101L5.2374 14.2861C5.14938 14.1342 5.18738 13.9451 5.3194 13.8392L6.7984 12.6812C6.76938 12.4572 6.74939 12.2302 6.74939 12C6.74939 11.7662 6.76938 11.5391 6.7984 11.3151L5.3194 10.1572C5.18738 10.0511 5.14938 9.86212 5.2374 9.71014L6.63739 7.28613C6.7254 7.13416 6.90738 7.07312 7.0654 7.13312L8.80838 7.83612C9.1694 7.55817 9.56439 7.32416 10 7.14716L10.2534 5.29315C10.2794 5.12616 10.4254 5 10.5994 5L13.3994 5C13.5734 5 13.7184 5.12616 13.7454 5.29315L14 7.14716C14.4344 7.32416 14.8294 7.55914 15.1904 7.83612L16.9334 7.13312C17.0914 7.07312 17.2744 7.13416 17.3614 7.28613L18.7614 9.71014C18.8494 9.86212 18.8094 10.0511 18.6794 10.1572L17.1994 11.3151C17.2284 11.5391 17.2494 11.7662 17.2494 12ZM19 3L5 3C3.89438 3 3 3.89417 3 5L3 19C3 20.1022 3.89438 21 5 21L19 21C20.1044 21 21 20.1022 21 19L21 5C21 3.89417 20.1044 3 19 3ZM12 10C10.8944 10 10 10.8942 10 12C10 13.1022 10.8944 14 12 14C13.1034 14 14 13.1022 14 12C14 10.8942 13.1034 10 12 10Z" /></svg>