<?xml version="1.0" encoding="UTF-8"?><!DOCTYPE svg PUBLIC "-//W3C//DTD SVG 1.1//EN" "http://www.w3.org/Graphics/SVG/1.1/DTD/svg11.dtd"><svg xmlns="http://www.w3.org/2000/svg" xmlns:xlink="http://www.w3.org/1999/xlink" version="1.1" width="24" height="24" viewBox="0 0 24.00 24.00"><path fill="#0f9d58" d="M12.1044 18.5522L12 18.6472L11.8944 18.5522C7.14038 14.2372 4 11.3873 4 8.5C4 6.50323 5.50439 5 7.5 5C9.03738 5 10.5384 6 11.0664 7.35925L12.9324 7.35925C13.4604 6 14.9614 5 16.5 5C18.5 5 20 6.50323 20 8.5C20 11.3873 16.8584 14.2372 12.1044 18.5522ZM16.5 3C14.7584 3 13.0904 3.80524 12 5.08423C10.9084 3.80524 9.24039 3 7.5 3C4.41537 3 2 5.41425 2 8.5C2 12.2733 5.4014 15.3602 10.5504 20.0333L12 21.3492L13.4484 20.0333C18.5974 15.3602 22 12.2733 22 8.5C22 5.41425 19.5834 3 16.5 3Z" /></svg>