<?xml version="1.0" encoding="UTF-8"?><!DOCTYPE svg PUBLIC "-//W3C//DTD SVG 1.1//EN" "http://www.w3.org/Graphics/SVG/1.1/DTD/svg11.dtd"><svg xmlns="http://www.w3.org/2000/svg" xmlns:xlink="http://www.w3.org/1999/xlink" version="1.1" width="24" height="24" viewBox="0 0 24.00 24.00"><path fill="#f1f1f1" d="M20 6.5C20 6.77407 19.7754 7 19.5 7L17.5 7C17.2234 7 17 6.77407 17 6.5L17 4.5C17 4.22207 17.2234 4 17.5 4L19.5 4C19.7754 4 20 4.22207 20 4.5M4.5 20C4.22336 20 4 19.7741 4 19.5L4 11L6.08937 11C6.03437 11.3242 6 11.6561 6 12C6 15.3111 8.68536 18 12 18C15.3124 18 18 15.3111 18 12C18 11.6561 17.9642 11.3242 17.9095 11L20 11L20 19.5C20 19.7741 19.7754 20 19.5 20M12 8C14.2084 8 16 9.78907 16 12C16 14.2071 14.2084 16 12 16C9.79036 16 8 14.2071 8 12C8 9.78907 9.79036 8 12 8ZM20 2L4 2C2.89436 2 2 2.89307 2 4L2 20C2 21.1016 2.89436 22 4 22L20 22C21.1029 22 22 21.1016 22 20L22 4C22 2.89307 21.1029 2 20 2Z" /></svg>