<?xml version="1.0" encoding="UTF-8"?><!DOCTYPE svg PUBLIC "-//W3C//DTD SVG 1.1//EN" "http://www.w3.org/Graphics/SVG/1.1/DTD/svg11.dtd"><svg xmlns="http://www.w3.org/2000/svg" xmlns:xlink="http://www.w3.org/1999/xlink" version="1.1" width="24" height="24" viewBox="0 0 24.00 24.00"><path fill="#f1f1f1" d="M16 17L16 10.5C16 8 14 6 11.5 6C9 6 7 8 7 10.5L7 17L16 17ZM18 16L20 18L20 19L3 19L3 18L5 16L5 10.5C5 7.42507 7.13468 4.85707 10 4.17907L10 3.5C10 2.67006 10.6717 2 11.5 2C12.3277 2 13 2.67006 13 3.5L13 4.17907C15.8647 4.85707 18 7.42507 18 10.5L18 16ZM11.5 22C10.3957 22 9.5 21.1016 9.5 20L13.5 20C13.5 21.1016 12.6047 22 11.5 22ZM19.9744 10C19.8194 7.34806 18.4564 5 16.4214 3.57607L17.8484 2.14907C20.2424 3.97207 21.8224 6.79407 21.9744 10L19.9744 10ZM6.57733 3.57608C4.54234 5 3.17934 7.34807 3 10L1 10C1.17633 6.79407 2.75633 3.97208 5.15033 2.14908L6.57733 3.57608Z" /></svg>